<svg viewBox="0 0 99 100" fill="currentColor" xmlns="http://www.w3.org/2000/svg">
<path d="M39.7128 0.981825C38.8311 1.0815 38.1257 1.7639 37.9953 2.63797L36.0938 14.3537C33.8013 15.0207 31.5931 15.8718 29.5306 16.9912L19.9004 10.1213C19.126 9.56159 18.0679 9.64593 17.3855 10.3053L9.71815 17.9727C9.05876 18.6551 8.97441 19.7132 9.53413 20.4876L16.2814 30.1791C15.139 32.2723 14.2035 34.4651 13.5212 36.8037L1.92812 38.7052C0.962036 38.8585 0.256639 39.6943 0.271974 40.668V51.4636C0.287308 52.3991 0.954367 53.1888 1.86678 53.3652L13.5825 55.4507C14.2649 57.7585 15.1466 59.9437 16.2814 62.0139L9.41145 71.6441C8.85174 72.4185 8.93608 73.4766 9.59547 74.159L17.2628 81.8263C17.9452 82.4857 19.0033 82.5701 19.7777 82.0104L29.4079 75.2018C31.4934 76.3442 33.7093 77.2183 36.0325 77.9007L37.9953 89.6164C38.1487 90.5825 38.9844 91.2879 39.9582 91.2725H50.7538C50.9455 91.2572 51.1295 91.2188 51.3058 91.1498V97.161C51.3058 98.2421 52.1876 99.1239 53.2687 99.1239H96.4512C97.5323 99.1239 98.414 98.2421 98.414 97.161V65.7556C98.414 65.6942 98.414 65.6329 98.414 65.5716V63.486C98.414 60.4268 95.8915 57.9042 92.8322 57.9042H76.3934C76.6924 57.0915 76.9991 56.2404 77.2522 55.4507L88.9065 53.3652C89.8496 53.2195 90.5473 52.4144 90.5627 51.4636V40.668C90.578 39.6943 89.8726 38.8585 88.9065 38.7052L77.1295 36.8037C76.4548 34.5341 75.5423 32.3489 74.4306 30.3018L81.3005 20.4876C81.8602 19.7132 81.7759 18.6551 81.1165 17.9727L73.4492 10.3053C72.7668 9.64593 71.7087 9.56159 70.9343 10.1213L61.3041 17.0526C59.2416 15.9178 57.0487 15.0361 54.7408 14.3537L52.6553 2.57663C52.479 1.66422 51.6892 0.997159 50.7538 0.981825H39.9582C39.8738 0.974157 39.7972 0.974157 39.7128 0.981825ZM41.6143 4.90751H49.0977L51.0605 16.0712C51.1985 16.8072 51.7429 17.4053 52.4713 17.6046C55.3389 18.3177 58.0454 19.4908 60.5067 20.9783C61.1737 21.3846 62.0171 21.3616 62.6535 20.9169L71.8543 14.2923L77.1295 19.5675L70.6276 28.891C70.1599 29.5197 70.1139 30.3631 70.5049 31.0378C71.977 33.4914 73.1041 36.152 73.8172 39.0119C74.0012 39.7786 74.6299 40.3613 75.412 40.484L86.637 42.3242V49.8075L75.412 51.7703C74.6299 51.893 74.0012 52.4757 73.8172 53.2425C73.5872 54.1779 72.8358 56.2557 72.2224 57.9042H56.8877C56.8493 57.9042 56.8033 57.9042 56.765 57.9042C59.8626 54.9216 61.7948 50.7429 61.7948 46.1272C61.7948 37.118 54.4265 29.7497 45.4173 29.7497C36.4082 29.7497 29.0399 37.118 29.0399 46.1272C29.0399 55.1363 36.4082 62.5046 45.4173 62.5046C47.6715 62.5046 49.8414 62.0446 51.7966 61.2165C51.4822 61.9142 51.3058 62.6733 51.3058 63.486V65.3876C51.2982 65.4719 51.2982 65.5486 51.3058 65.6329V76.4899L49.0977 87.3468H41.6143L39.7742 76.2445C39.6515 75.4624 39.0688 74.8337 38.302 74.6497C35.4268 73.9443 32.6819 72.8249 30.2053 71.3374C29.5382 70.931 28.6948 70.954 28.0584 71.3988L18.8576 77.8393L13.5825 72.5642L20.0844 63.4247C20.5291 62.7883 20.5521 61.9449 20.1457 61.2779C18.6429 58.7936 17.5465 56.1254 16.8334 53.2425C16.6494 52.4757 16.0207 51.893 15.2386 51.7703L4.19766 49.8075V42.3242L15.2386 40.484C16.0207 40.3613 16.6494 39.7786 16.8334 39.0119C17.5542 36.1136 18.7119 33.3994 20.2071 30.9152C20.6134 30.2481 20.5904 29.4047 20.1457 28.7683L13.6438 19.5675L18.9803 14.2923L28.1198 20.7943C28.7485 21.262 29.5919 21.308 30.2666 20.9169C32.7279 19.4371 35.4268 18.31 38.302 17.6046C39.0688 17.4206 39.6515 16.7919 39.7742 16.0098L41.6143 4.90751ZM45.4173 33.6754C52.3026 33.6754 57.8691 39.2419 57.8691 46.1272C57.8691 53.0125 52.3026 58.5789 45.4173 58.5789C38.532 58.5789 32.9655 53.0125 32.9655 46.1272C32.9655 39.2419 38.532 33.6754 45.4173 33.6754ZM56.8877 61.8299H73.0198C73.3955 61.9449 73.8095 61.9449 74.1852 61.8299H92.8322C93.7753 61.8299 94.4884 62.543 94.4884 63.486V63.7927H55.2315V63.486C55.2315 62.543 55.9446 61.8299 56.8877 61.8299ZM55.2315 67.7184H94.4884V95.1982H55.2315V76.7352C55.3159 76.4132 55.3159 76.0758 55.2315 75.7538V67.7184ZM72.8971 68.8839L71.4863 70.2333L64.9231 76.7966L62.4082 74.6497L60.936 73.3616L58.3598 76.3672L59.8319 77.594L63.7576 80.9676L65.1684 82.1944L74.3079 73.0549L75.6573 71.6441L72.8971 68.8839ZM72.8971 78.6981L71.4863 80.0475L64.9231 86.6108L62.4082 84.4639L60.936 83.1758L58.3598 86.1814L59.8319 87.4082L63.7576 90.7818L65.1684 92.0086L74.3079 82.8691L75.6573 81.4583L72.8971 78.6981Z" />
</svg>
